<?xml version="1.0" encoding="utf-8"?>
<!-- Generator: Adobe Illustrator 22.1.0, SVG Export Plug-In . SVG Version: 6.00 Build 0)  -->
<svg version="1.1" id="Layer_1" xmlns="http://www.w3.org/2000/svg" xmlns:xlink="http://www.w3.org/1999/xlink" x="0px" y="0px"
	 viewBox="0 0 745 199" style="enable-background:new 0 0 745 199;" xml:space="preserve">
<style type="text/css">
	.st0{fill:#FFFFFF;}
	.st1{filter:url(#Adobe_OpacityMaskFilter);}
	.st2{mask:url(#mask-2_1_);fill:#FFFFFF;}
	.st3{fill:#E7232D;}
	.st4{filter:url(#Adobe_OpacityMaskFilter_1_);}
	.st5{mask:url(#mask-4_1_);fill:#FFFFFF;}
	.st6{filter:url(#Adobe_OpacityMaskFilter_2_);}
	.st7{mask:url(#mask-4_2_);fill:#FFFFFF;}
	.st8{filter:url(#Adobe_OpacityMaskFilter_3_);}
	.st9{mask:url(#mask-4_3_);fill:#FFFFFF;}
	.st10{filter:url(#Adobe_OpacityMaskFilter_4_);}
	.st11{mask:url(#mask-4_4_);fill:#FFFFFF;}
	.st12{filter:url(#Adobe_OpacityMaskFilter_5_);}
	.st13{mask:url(#mask-4_5_);fill:#FFFFFF;}
	.st14{filter:url(#Adobe_OpacityMaskFilter_6_);}
	.st15{mask:url(#mask-4_6_);fill:#FFFFFF;}
	.st16{filter:url(#Adobe_OpacityMaskFilter_7_);}
	.st17{mask:url(#mask-4_7_);fill:#FFFFFF;}
	.st18{filter:url(#Adobe_OpacityMaskFilter_8_);}
	.st19{mask:url(#mask-4_8_);fill:#FFFFFF;}
	.st20{filter:url(#Adobe_OpacityMaskFilter_9_);}
	.st21{mask:url(#mask-4_9_);fill:#FFFFFF;}
	.st22{filter:url(#Adobe_OpacityMaskFilter_10_);}
	.st23{mask:url(#mask-4_10_);fill:#FFFFFF;}
	.st24{filter:url(#Adobe_OpacityMaskFilter_11_);}
	.st25{mask:url(#mask-4_11_);fill:#FFFFFF;}
	.st26{filter:url(#Adobe_OpacityMaskFilter_12_);}
	.st27{mask:url(#mask-4_12_);fill:#FFFFFF;}
	.st28{filter:url(#Adobe_OpacityMaskFilter_13_);}
	.st29{mask:url(#mask-4_13_);fill:#FFFFFF;}
	.st30{filter:url(#Adobe_OpacityMaskFilter_14_);}
	.st31{mask:url(#mask-4_14_);fill:#FFFFFF;}
	.st32{filter:url(#Adobe_OpacityMaskFilter_15_);}
	.st33{mask:url(#mask-4_15_);fill:#FFFFFF;}
	.st34{filter:url(#Adobe_OpacityMaskFilter_16_);}
	.st35{mask:url(#mask-4_16_);fill:#FFFFFF;}
	.st36{filter:url(#Adobe_OpacityMaskFilter_17_);}
	.st37{mask:url(#mask-4_17_);fill:#FFFFFF;}
	.st38{filter:url(#Adobe_OpacityMaskFilter_18_);}
	.st39{mask:url(#mask-4_18_);fill:#FFFFFF;}
	.st40{filter:url(#Adobe_OpacityMaskFilter_19_);}
	.st41{mask:url(#mask-4_19_);fill:#FFFFFF;}
	.st42{filter:url(#Adobe_OpacityMaskFilter_20_);}
	.st43{mask:url(#mask-4_20_);fill:#FFFFFF;}
	.st44{filter:url(#Adobe_OpacityMaskFilter_21_);}
	.st45{mask:url(#mask-4_21_);fill:#FFFFFF;}
	.st46{filter:url(#Adobe_OpacityMaskFilter_22_);}
	.st47{mask:url(#mask-4_22_);fill:#FFFFFF;}
	.st48{filter:url(#Adobe_OpacityMaskFilter_23_);}
	.st49{mask:url(#mask-4_23_);fill:#FFFFFF;}
	.st50{filter:url(#Adobe_OpacityMaskFilter_24_);}
	.st51{mask:url(#mask-4_24_);fill:#FFFFFF;}
	.st52{filter:url(#Adobe_OpacityMaskFilter_25_);}
	.st53{mask:url(#mask-4_25_);fill:#FFFFFF;}
	.st54{filter:url(#Adobe_OpacityMaskFilter_26_);}
	.st55{mask:url(#mask-4_26_);fill:#FFFFFF;}
	.st56{filter:url(#Adobe_OpacityMaskFilter_27_);}
	.st57{mask:url(#mask-4_27_);fill:#E7232D;}
	.st58{filter:url(#Adobe_OpacityMaskFilter_28_);}
	.st59{mask:url(#mask-4_28_);fill:#E7232D;}
</style>
<title>Group 65</title>
<desc>Created with Sketch.</desc>
<g id="Page-1">
	<g id="Side-Menu" transform="translate(-121.000000, -78.000000)">
		<g id="Group-65" transform="translate(121.000000, 77.000000)">
			<path id="Fill-1" class="st0" d="M67.5,128.3c0-1.3-0.2-2.4-0.7-3.3c-0.5-0.9-1.2-1.6-2.2-2.1c-0.8-0.4-1.7-0.6-2.8-0.8
				c-1.1-0.2-2.5-0.3-4.1-0.3h-26v15.4h26c3.2,0,5.5-0.3,7-1v0.1c1-0.5,1.8-1.2,2.2-2.2c0.5-1,0.7-2.1,0.7-3.4V128.3z M57.8,143.5
				H31.6v19.3c0,0.5-0.3,0.7-0.8,0.7h-5.1c-0.5,0-0.7-0.2-0.7-0.7v-46.6c0-0.5,0.2-0.8,0.7-0.8h32.1c2.9,0,5.3,0.3,7.4,0.8
				c2.1,0.6,3.8,1.4,5,2.6c1.2,1.2,2.1,2.7,2.8,4.7c0.7,2,1,4.4,1,7.2C74,139.3,68.6,143.5,57.8,143.5L57.8,143.5z"/>
			<path id="Fill-3" class="st0" d="M78.4,146.2h25.9L91.5,121L78.4,146.2z M113.8,163.5h-0.5c0,0,0-0.1-0.1-0.2l0.1,0.1l-5.8-11.1
				H75.2l-5.7,11.1v-0.1v0.2h-0.4h-5.4c-0.5,0-0.7-0.2-0.7-0.7v-0.1c0-0.1,0.1-0.2,0.2-0.3v0.2l24.2-46.9c0.1-0.1,0.3-0.1,0.5-0.1
				h7.5c0.2,0,0.2,0,0.3,0c0,0,0.1,0.1,0.1,0.1l24.3,46.9v-0.2c0.1,0.1,0.1,0.2,0.1,0.3v0.1c0,0.5-0.2,0.7-0.6,0.7H113.8z"/>
			<path id="Fill-5" class="st0" d="M141.9,137.6l31.8,25c-0.1,0-0.1,0.1-0.1,0.2c0,0.4-0.2,0.7-0.7,0.7h-8l-28.8-22.9h-7v22.2
				c0,0.4-0.2,0.7-0.7,0.7h-4.8c-0.5,0-0.7-0.2-0.7-0.7v-46.6c0-0.5,0.2-0.8,0.7-0.8h4.8c0.5,0,0.7,0.3,0.7,0.8v18.6h6.8l29.6-19.3
				h7.7c0.5,0,0.8,0.3,0.8,0.8c0,0.1,0,0.2-0.1,0.4L141.9,137.6z"/>
			<path id="Fill-7" class="st0" d="M244.7,163c-0.1,0.3-0.3,0.5-0.6,0.5h-7.2c-0.2,0-0.5-0.3-0.8-1L221,123.6l-14.8,39
				c-0.4,0.6-0.7,0.9-0.9,0.9h-7.6c-0.4,0-0.6-0.2-0.7-0.5L178,116.5v-0.2c0-0.5,0.3-0.8,0.8-0.8h5.6c0.3,0,0.6,0.4,0.9,1.1
				l16.1,40.6l15.8-40.6c0.4-0.7,0.7-1.1,0.9-1.1h5.7c0.3,0,0.6,0.4,0.9,1.1l15.8,40.6l16.3-40.6c0.4-0.8,0.7-1.1,0.9-1.1h5.7
				c0.4,0,0.6,0.3,0.6,0.8v0.2L244.7,163z"/>
			<path id="Fill-9" class="st0" d="M315.5,163.5c-0.4,0-0.6-0.2-0.6-0.7V142h-39.7v20.9c0,0.5-0.2,0.7-0.7,0.7h-4.8
				c-0.5,0-0.7-0.2-0.7-0.7v-46.6c0-0.5,0.2-0.8,0.7-0.8h4.8c0.5,0,0.7,0.2,0.7,0.8v19.4h39.7v-19.4c0-0.5,0.2-0.8,0.6-0.8h4.9
				c0.4,0,0.6,0.2,0.6,0.8v46.6c0,0.5-0.2,0.7-0.6,0.7H315.5z"/>
			<path id="Fill-11" class="st0" d="M327.7,163.5c-0.5,0-0.7-0.2-0.7-0.7v-46.6c0-0.5,0.2-0.8,0.7-0.8h40.7c0.4,0,0.6,0.2,0.6,0.8
				v4.8c0,0.5-0.2,0.8-0.6,0.8h-35.2v13.9h34.1c0.4,0,0.6,0.3,0.6,0.8v4.8c0,0.5-0.2,0.8-0.6,0.8h-34.1v15.3h35.2
				c0.4,0,0.6,0.2,0.6,0.7v4.9c0,0.5-0.2,0.7-0.6,0.7H327.7z"/>
			<path id="Fill-13" class="st0" d="M373.7,163.5c-0.5,0-0.7-0.2-0.7-0.7v-46.6c0-0.5,0.2-0.8,0.7-0.8h40.7c0.4,0,0.6,0.2,0.6,0.8
				v4.8c0,0.5-0.2,0.8-0.6,0.8h-35.2v13.9h34.1c0.4,0,0.6,0.3,0.6,0.8v4.8c0,0.5-0.2,0.8-0.6,0.8h-34.1v15.3h35.2
				c0.4,0,0.6,0.2,0.6,0.7v4.9c0,0.5-0.2,0.7-0.6,0.7H373.7z"/>
			<path id="Fill-15" class="st0" d="M419.7,163.5c-0.5,0-0.7-0.2-0.7-0.7v-46.6c0-0.5,0.2-0.8,0.7-0.8h4.9c0.5,0,0.7,0.2,0.7,0.8
				v41h34.1c0.5,0,0.7,0.2,0.7,0.7v4.9c0,0.5-0.2,0.7-0.7,0.7H419.7z"/>
			<path id="Fill-17" class="st0" d="M512.9,160.8c-1.2,1-2.8,1.7-4.8,2.1c-2,0.4-4.3,0.6-7,0.6h-23.8c-4.8,0-8.5-1.1-11.2-3.3
				c-3.1-2.4-4.7-6-4.7-10.6c0-0.5,0.2-0.7,0.6-0.7h4.8c0.5,0,0.7,0.2,0.7,0.7c0,1.5,0.3,2.8,0.8,3.9c0.5,1.1,1.4,1.9,2.5,2.4
				c0.8,0.4,1.9,0.7,3.2,1c1.3,0.2,2.9,0.4,4.7,0.4h22c1.7,0,3.2-0.1,4.4-0.4c1.2-0.3,2.1-0.6,2.9-1.1c1-0.6,1.7-1.4,2.1-2.5
				c0.4-1.1,0.6-2.3,0.6-3.8c0-3.1-1.4-5.2-4.2-6.3c-1.1-0.5-2.6-0.9-4.4-1.1c-1.8-0.2-4-0.3-6.5-0.3h-1.8c-0.7,0-1.5,0-2.4,0.1
				h-1.2h-1.4c-0.1,0-0.2,0-0.4,0c-0.2,0-0.3,0-0.5,0h-1c-1.1,0.1-2,0.1-2.8,0.1h-2c-6.6,0-11.4-0.8-14.7-2.3
				c-4.3-2-6.5-5.8-6.5-11.2c0-8.7,5-13.1,15-13.1h24.2c10.9,0,16.4,4.6,16.4,13.9c0,0.4-0.2,0.6-0.5,0.6h-5c-0.4,0-0.6-0.2-0.6-0.6
				c-0.1-1.5-0.3-2.7-0.8-3.8c-0.5-1.1-1.4-1.9-2.5-2.5c-1.7-0.9-4.3-1.3-7.8-1.3h-23.5c-1.6,0-2.9,0.1-3.9,0.4
				c-1.1,0.3-1.9,0.6-2.5,1c-1.4,0.9-2.2,2.8-2.2,5.5c0,2.8,1.4,4.7,4.2,5.8c2.4,1,6,1.4,10.8,1.4h2.4c1.1,0,2.4,0,3.8-0.1
				c0.2,0,0.3,0,0.5,0c0.2,0,0.4,0,0.6,0h1c0.9-0.1,1.7-0.1,2.5-0.1h1.7c3.5,0,6.5,0.2,9,0.6c2.6,0.4,4.7,1,6.4,1.7
				c4.5,2.2,6.8,6.1,6.8,11.6C517,154.8,515.6,158.5,512.9,160.8"/>
			<path id="Fill-19" class="st0" d="M522.5,163.5c-0.3,0-0.5-0.2-0.5-0.6v-4c0-0.3,0.2-0.5,0.5-0.5h4c0.3,0,0.5,0.2,0.5,0.5v4
				c0,0.4-0.2,0.6-0.5,0.6H522.5z"/>
			<path id="Fill-21" class="st0" d="M588.9,149.2c0.1,0.1,0.1,0.2,0.1,0.3c0,5.2-1.6,8.9-4.9,11.3c-2.7,1.8-6.9,2.7-12.4,2.7h-17.5
				c-3.4,0-6.3-0.2-8.8-0.7c-2.4-0.4-4.5-1.1-6.1-2.1c-1.4-1-2.6-2.2-3.6-3.6c-1-1.5-1.6-3.2-2-5.3c-0.5-2.5-0.7-7.5-0.7-15
				c0-8.7,1.6-14.6,4.8-17.7h-0.1c3.1-3.1,9-4.6,17.7-4.6h16.2c5.8,0,10.1,1.2,13,3.4c2.9,2.3,4.4,5.8,4.4,10.4v0.2
				c0,0.5-0.2,0.7-0.6,0.7h-4.9c-0.5,0-0.7-0.2-0.7-0.7v-0.2c0-5.1-3.7-7.6-11.2-7.6h-16.7c-2.8,0-5.2,0.2-7.1,0.5
				c-1.9,0.4-3.4,0.8-4.4,1.4c-2,1.2-3.2,3.3-3.8,6.5c-0.2,0.9-0.3,2.3-0.4,4.3c-0.1,2-0.1,4.6-0.1,7.7c0,3.4,0.2,6.1,0.6,8.3
				c0.4,2.2,0.9,3.7,1.7,4.6c1.8,2,5.9,3.1,12.2,3.1h18c3.7,0,6.4-0.4,8.1-1.3c2.1-1,3.2-3,3.2-6.2v-0.2c0-0.5,0.2-0.7,0.7-0.7h4.9
				h0.1c0,0,0.1,0,0.1,0.1L588.9,149.2z"/>
			<path id="Fill-23" class="st0" d="M713.6,163.5c-0.5,0-0.7-0.2-0.7-0.7v-42.2h-1.5l-24.9,42.8c-0.1,0.1-0.3,0.2-0.5,0.2h-3.3
				c-0.1,0-0.2,0-0.3-0.1l-24.7-42.8h-1.4v42.2c0,0.5-0.2,0.7-0.7,0.7h-5c-0.5,0-0.7-0.2-0.7-0.7v-46.6c0-0.5,0.2-0.8,0.7-0.8h11
				c0.1,0,0.3,0,0.4,0.1l22.4,39.2l23.1-39.1c0.1-0.1,0.3-0.1,0.5-0.1h10.4c0.4,0,0.5,0.2,0.5,0.8v46.6c0,0.5-0.2,0.7-0.5,0.7H713.6
				z"/>
			<g id="Group-27" transform="translate(0.000000, 0.500000)">
				<g id="Clip-26">
				</g>
				<defs>
					<filter id="Adobe_OpacityMaskFilter" filterUnits="userSpaceOnUse" x="0" y="0.8" width="745" height="119.1">
						<feColorMatrix  type="matrix" values="1 0 0 0 0  0 1 0 0 0  0 0 1 0 0  0 0 0 1 0"/>
					</filter>
				</defs>
				<mask maskUnits="userSpaceOnUse" x="0" y="0.8" width="745" height="119.1" id="mask-2_1_">
					<g class="st1">
						<polygon id="path-1_1_" class="st0" points="0,0.8 745,0.8 745,119.9 0,119.9 						"/>
					</g>
				</mask>
				<path id="Fill-25" class="st2" d="M0,61.2c91.8-10,165.8-61.7,258.9-60.4c35.8,0.5,64.5,3.4,97.1,15
					c47.8,17,86.2,37.3,137.2,36.8C564.2,52,703,47.6,745,119.9c-45.6-68-181.2-59.5-251.6-58c-52.5,1.2-91.9-19.5-141.2-36.8
					c-31.5-11.1-58.9-14-93.5-15C166.4,7.4,92,58.2,0,61.2C32.2,57.7,16.2,60.7,0,61.2"/>
			</g>
			<path id="Fill-28" class="st3" d="M102,60.9l11.2,6.5c0,0,272.4-0.5,364.8,15.1C478,82.5,232.9,49.5,102,60.9"/>
			<path id="Fill-30" class="st0" d="M34,188.1c0.8-0.6,1.2-1.5,1.2-2.8c0-1.3-0.3-2.2-1-2.8c-0.7-0.7-2-1-3.9-1h-1.6v7.3h1.1
				C32,188.9,33.3,188.6,34,188.1 M38,185.1c0,3.1-1.4,5-4.3,5.7c-1,0.2-2.3,0.3-3.9,0.3h-1v7.4H26v-19h4.5c1.5,0,2.6,0.1,3.5,0.4
				c0.9,0.2,1.6,0.7,2.3,1.2C37.4,182.1,38,183.4,38,185.1"/>
			<path id="Fill-32" class="st0" d="M57.8,191.5l-2.8-9.4l-2.8,9.4H57.8z M58.5,193.6h-6.9l-1.7,4.9H47l6.4-19h3.1l6.4,19h-2.8
				L58.5,193.6z"/>
			<path id="Fill-34" class="st0" d="M76.6,188.8l7.5-9.3h3.5l-7.8,9.1l8.2,9.9h-3.7L76.6,188.8z M73,198.5h2.8v-19H73V198.5z"/>
			<g id="Clip-37">
			</g>
			<defs>
				<filter id="Adobe_OpacityMaskFilter_1_" filterUnits="userSpaceOnUse" x="99" y="179.5" width="3" height="19">
					<feColorMatrix  type="matrix" values="1 0 0 0 0  0 1 0 0 0  0 0 1 0 0  0 0 0 1 0"/>
				</filter>
			</defs>
			<mask maskUnits="userSpaceOnUse" x="99" y="179.5" width="3" height="19" id="mask-4_1_">
				<g class="st4">
					<polygon id="path-3_1_" class="st0" points="0,199.5 745,199.5 745,1.5 0,1.5 					"/>
				</g>
			</mask>
			<polygon id="Fill-36" class="st5" points="99,198.5 102,198.5 102,179.5 99,179.5 			"/>
			<defs>
				<filter id="Adobe_OpacityMaskFilter_2_" filterUnits="userSpaceOnUse" x="113" y="179.5" width="12" height="20">
					<feColorMatrix  type="matrix" values="1 0 0 0 0  0 1 0 0 0  0 0 1 0 0  0 0 0 1 0"/>
				</filter>
			</defs>
			<mask maskUnits="userSpaceOnUse" x="113" y="179.5" width="12" height="20" id="mask-4_2_">
				<g class="st6">
					<polygon id="path-3_2_" class="st0" points="0,199.5 745,199.5 745,1.5 0,1.5 					"/>
				</g>
			</mask>
			<path id="Fill-38" class="st7" d="M125,194.1c0,1.6-0.6,2.9-1.7,3.9c-1.1,1-2.6,1.5-4.5,1.5c-1,0-2-0.1-3.2-0.3
				c-1.1-0.2-2-0.5-2.7-0.8l0.8-2.4c1.9,0.7,3.5,1.1,4.7,1.1c1.3,0,2.2-0.3,2.9-0.8c0.6-0.5,1-1.2,1-2.1c0-0.8-0.4-1.6-1-2.2
				c-0.7-0.6-1.6-1.2-2.7-1.7c-1.1-0.5-1.9-0.9-2.3-1.2c-0.4-0.2-0.8-0.6-1.3-1c-1-0.8-1.5-2-1.5-3.6c0-1.6,0.6-2.8,1.7-3.7
				c1.1-0.9,2.5-1.3,4.1-1.3c1.6,0,3.2,0.3,4.9,0.9l-0.8,2.3c-1.5-0.5-2.8-0.8-3.9-0.8c-1.1,0-2,0.2-2.5,0.7c-0.5,0.5-0.8,1-0.8,1.8
				s0.3,1.3,0.9,1.9c0.6,0.5,1.4,1,2.4,1.6c1,0.5,1.8,0.9,2.2,1.3c0.5,0.3,1,0.7,1.6,1.2C124.4,191.2,125,192.5,125,194.1"/>
			<defs>
				<filter id="Adobe_OpacityMaskFilter_3_" filterUnits="userSpaceOnUse" x="134" y="179.5" width="13" height="19">
					<feColorMatrix  type="matrix" values="1 0 0 0 0  0 1 0 0 0  0 0 1 0 0  0 0 0 1 0"/>
				</filter>
			</defs>
			<mask maskUnits="userSpaceOnUse" x="134" y="179.5" width="13" height="19" id="mask-4_3_">
				<g class="st8">
					<polygon id="path-3_3_" class="st0" points="0,199.5 745,199.5 745,1.5 0,1.5 					"/>
				</g>
			</mask>
			<polygon id="Fill-39" class="st9" points="139.1,181.9 134,181.9 134,179.5 147,179.5 147,181.9 141.9,181.9 141.9,198.5 
				139.1,198.5 			"/>
			<defs>
				<filter id="Adobe_OpacityMaskFilter_4_" filterUnits="userSpaceOnUse" x="156" y="179.5" width="16" height="19">
					<feColorMatrix  type="matrix" values="1 0 0 0 0  0 1 0 0 0  0 0 1 0 0  0 0 0 1 0"/>
				</filter>
			</defs>
			<mask maskUnits="userSpaceOnUse" x="156" y="179.5" width="16" height="19" id="mask-4_4_">
				<g class="st10">
					<polygon id="path-3_4_" class="st0" points="0,199.5 745,199.5 745,1.5 0,1.5 					"/>
				</g>
			</mask>
			<path id="Fill-40" class="st11" d="M166.8,191.5l-2.8-9.4l-2.8,9.4H166.8z M167.5,193.6h-6.9l-1.7,4.9H156l6.4-19h3.1l6.4,19
				h-2.8L167.5,193.6z"/>
			<defs>
				<filter id="Adobe_OpacityMaskFilter_5_" filterUnits="userSpaceOnUse" x="182" y="179.5" width="15" height="19">
					<feColorMatrix  type="matrix" values="1 0 0 0 0  0 1 0 0 0  0 0 1 0 0  0 0 0 1 0"/>
				</filter>
			</defs>
			<mask maskUnits="userSpaceOnUse" x="182" y="179.5" width="15" height="19" id="mask-4_5_">
				<g class="st12">
					<polygon id="path-3_5_" class="st0" points="0,199.5 745,199.5 745,1.5 0,1.5 					"/>
				</g>
			</mask>
			<path id="Fill-41" class="st13" d="M197,198.5h-2.9l-9.5-15.4c0.1,0.7,0.1,1.5,0.1,2.4v13H182v-19h2.9l9.5,15.4
				c-0.1-0.7-0.1-1.5-0.1-2.4v-13h2.7V198.5z"/>
			<defs>
				<filter id="Adobe_OpacityMaskFilter_6_" filterUnits="userSpaceOnUse" x="208" y="178.5" width="5" height="7">
					<feColorMatrix  type="matrix" values="1 0 0 0 0  0 1 0 0 0  0 0 1 0 0  0 0 0 1 0"/>
				</filter>
			</defs>
			<mask maskUnits="userSpaceOnUse" x="208" y="178.5" width="5" height="7" id="mask-4_6_">
				<g class="st14">
					<polygon id="path-3_6_" class="st0" points="0,199.5 745,199.5 745,1.5 0,1.5 					"/>
				</g>
			</mask>
			<path id="Fill-42" class="st15" d="M213,180.1c0,2-0.9,3.8-2.6,5.4H208c1.6-1.8,2.4-3.5,2.4-4.9c0-0.6-0.2-1.3-0.5-2.1h2.8
				C212.9,179,213,179.5,213,180.1"/>
			<defs>
				<filter id="Adobe_OpacityMaskFilter_7_" filterUnits="userSpaceOnUse" x="223" y="179.5" width="12" height="20">
					<feColorMatrix  type="matrix" values="1 0 0 0 0  0 1 0 0 0  0 0 1 0 0  0 0 0 1 0"/>
				</filter>
			</defs>
			<mask maskUnits="userSpaceOnUse" x="223" y="179.5" width="12" height="20" id="mask-4_7_">
				<g class="st16">
					<polygon id="path-3_7_" class="st0" points="0,199.5 745,199.5 745,1.5 0,1.5 					"/>
				</g>
			</mask>
			<path id="Fill-43" class="st17" d="M235,194.1c0,1.6-0.6,2.9-1.7,3.9c-1.1,1-2.6,1.5-4.5,1.5c-1,0-2-0.1-3.2-0.3
				c-1.1-0.2-2-0.5-2.7-0.8l0.8-2.4c1.9,0.7,3.5,1.1,4.7,1.1c1.3,0,2.2-0.3,2.9-0.8c0.6-0.5,1-1.2,1-2.1c0-0.8-0.4-1.6-1-2.2
				c-0.7-0.6-1.6-1.2-2.7-1.7c-1.1-0.5-1.9-0.9-2.3-1.2c-0.4-0.2-0.8-0.6-1.3-1c-1-0.8-1.5-2-1.5-3.6c0-1.6,0.6-2.8,1.7-3.7
				c1.1-0.9,2.5-1.3,4.1-1.3c1.6,0,3.2,0.3,4.9,0.9l-0.8,2.3c-1.5-0.5-2.8-0.8-3.9-0.8c-1.1,0-2,0.2-2.5,0.7c-0.5,0.5-0.8,1-0.8,1.8
				s0.3,1.3,0.9,1.9c0.6,0.5,1.4,1,2.4,1.6c1,0.5,1.8,0.9,2.2,1.3c0.5,0.3,1,0.7,1.6,1.2C234.4,191.2,235,192.5,235,194.1"/>
			<defs>
				<filter id="Adobe_OpacityMaskFilter_8_" filterUnits="userSpaceOnUse" x="259" y="179.5" width="17" height="20">
					<feColorMatrix  type="matrix" values="1 0 0 0 0  0 1 0 0 0  0 0 1 0 0  0 0 0 1 0"/>
				</filter>
			</defs>
			<mask maskUnits="userSpaceOnUse" x="259" y="179.5" width="17" height="20" id="mask-4_8_">
				<g class="st18">
					<polygon id="path-3_8_" class="st0" points="0,199.5 745,199.5 745,1.5 0,1.5 					"/>
				</g>
			</mask>
			<path id="Fill-44" class="st19" d="M268.6,191l0.5-2.8h-3.2l-0.5,2.8H268.6z M276,194.1h-4.7l-1,5.4H267l1-5.4h-3.2l-1,5.4h-3.4
				l1-5.4H259V191h3l0.5-2.8h-3.4v-3.1h3.9l1.1-5.6h3.3l-1,5.6h3.2l1.1-5.6h3.3l-1,5.6h3v3.1h-3.6l-0.5,2.8h4.1V194.1z"/>
			<defs>
				<filter id="Adobe_OpacityMaskFilter_9_" filterUnits="userSpaceOnUse" x="285" y="179.5" width="9" height="19">
					<feColorMatrix  type="matrix" values="1 0 0 0 0  0 1 0 0 0  0 0 1 0 0  0 0 0 1 0"/>
				</filter>
			</defs>
			<mask maskUnits="userSpaceOnUse" x="285" y="179.5" width="9" height="19" id="mask-4_9_">
				<g class="st20">
					<polygon id="path-3_9_" class="st0" points="0,199.5 745,199.5 745,1.5 0,1.5 					"/>
				</g>
			</mask>
			<polygon id="Fill-45" class="st21" points="294,198.5 289.9,198.5 289.9,183.3 286.3,184.8 285,181.9 290.8,179.5 294,179.5 			
				"/>
			<defs>
				<filter id="Adobe_OpacityMaskFilter_10_" filterUnits="userSpaceOnUse" x="318" y="179.5" width="16" height="19">
					<feColorMatrix  type="matrix" values="1 0 0 0 0  0 1 0 0 0  0 0 1 0 0  0 0 0 1 0"/>
				</filter>
			</defs>
			<mask maskUnits="userSpaceOnUse" x="318" y="179.5" width="16" height="19" id="mask-4_10_">
				<g class="st22">
					<polygon id="path-3_10_" class="st0" points="0,199.5 745,199.5 745,1.5 0,1.5 					"/>
				</g>
			</mask>
			<path id="Fill-46" class="st23" d="M328.8,191.5l-2.8-9.4l-2.8,9.4H328.8z M329.5,193.6h-6.9l-1.7,4.9H318l6.4-19h3.1l6.4,19
				h-2.8L329.5,193.6z"/>
			<defs>
				<filter id="Adobe_OpacityMaskFilter_11_" filterUnits="userSpaceOnUse" x="344" y="179.5" width="14" height="20">
					<feColorMatrix  type="matrix" values="1 0 0 0 0  0 1 0 0 0  0 0 1 0 0  0 0 0 1 0"/>
				</filter>
			</defs>
			<mask maskUnits="userSpaceOnUse" x="344" y="179.5" width="14" height="20" id="mask-4_11_">
				<g class="st24">
					<polygon id="path-3_11_" class="st0" points="0,199.5 745,199.5 745,1.5 0,1.5 					"/>
				</g>
			</mask>
			<path id="Fill-47" class="st25" d="M344,191.9v-12.4h2.9v12c0,2,0.3,3.4,0.8,4.1c0.6,0.9,1.7,1.4,3.2,1.4c1.6,0,2.7-0.5,3.3-1.4
				c0.5-0.7,0.8-2.1,0.8-4.1v-12h2.9v12.4c0,2.3-0.5,4.1-1.4,5.3c-1.1,1.5-3,2.2-5.6,2.2c-2.6,0-4.5-0.7-5.7-2.2
				C344.5,196,344,194.2,344,191.9"/>
			<defs>
				<filter id="Adobe_OpacityMaskFilter_12_" filterUnits="userSpaceOnUse" x="368" y="179.5" width="13" height="19">
					<feColorMatrix  type="matrix" values="1 0 0 0 0  0 1 0 0 0  0 0 1 0 0  0 0 0 1 0"/>
				</filter>
			</defs>
			<mask maskUnits="userSpaceOnUse" x="368" y="179.5" width="13" height="19" id="mask-4_12_">
				<g class="st26">
					<polygon id="path-3_12_" class="st0" points="0,199.5 745,199.5 745,1.5 0,1.5 					"/>
				</g>
			</mask>
			<polygon id="Fill-48" class="st27" points="373.1,181.9 368,181.9 368,179.5 381,179.5 381,181.9 375.9,181.9 375.9,198.5 
				373.1,198.5 			"/>
			<defs>
				<filter id="Adobe_OpacityMaskFilter_13_" filterUnits="userSpaceOnUse" x="391" y="179.5" width="15" height="20">
					<feColorMatrix  type="matrix" values="1 0 0 0 0  0 1 0 0 0  0 0 1 0 0  0 0 0 1 0"/>
				</filter>
			</defs>
			<mask maskUnits="userSpaceOnUse" x="391" y="179.5" width="15" height="20" id="mask-4_13_">
				<g class="st28">
					<polygon id="path-3_13_" class="st0" points="0,199.5 745,199.5 745,1.5 0,1.5 					"/>
				</g>
			</mask>
			<path id="Fill-49" class="st29" d="M394.9,194.9c0.8,1.4,1.9,2.1,3.5,2.1s2.8-0.7,3.5-2.1c0.8-1.4,1.1-3.2,1.1-5.5
				c0-2.2-0.4-4.1-1.1-5.4c-0.8-1.4-1.9-2.1-3.5-2.1s-2.8,0.7-3.5,2.1c-0.8,1.4-1.1,3.2-1.1,5.4
				C393.8,191.7,394.2,193.5,394.9,194.9 M395,180.3c1-0.6,2.2-0.8,3.5-0.8c1.3,0,2.5,0.3,3.5,0.8c1,0.6,1.8,1.3,2.3,2.3
				c1.1,1.9,1.6,4.2,1.6,6.9c0,2.7-0.6,4.9-1.7,6.9c-0.6,1-1.4,1.7-2.4,2.3c-1,0.6-2.2,0.8-3.5,0.8c-1.3,0-2.5-0.3-3.5-0.8
				c-1-0.6-1.8-1.3-2.3-2.3c-1.1-1.9-1.6-4.2-1.6-6.9c0-2.7,0.6-5,1.7-6.9C393.3,181.7,394,180.9,395,180.3"/>
			<defs>
				<filter id="Adobe_OpacityMaskFilter_14_" filterUnits="userSpaceOnUse" x="417" y="179.5" width="19" height="19">
					<feColorMatrix  type="matrix" values="1 0 0 0 0  0 1 0 0 0  0 0 1 0 0  0 0 0 1 0"/>
				</filter>
			</defs>
			<mask maskUnits="userSpaceOnUse" x="417" y="179.5" width="19" height="19" id="mask-4_14_">
				<g class="st30">
					<polygon id="path-3_14_" class="st0" points="0,199.5 745,199.5 745,1.5 0,1.5 					"/>
				</g>
			</mask>
			<path id="Fill-50" class="st31" d="M432.9,183.8c0-0.4,0-0.8,0-1.2l-5.3,13.8h-2.2l-5.3-13.8c0,0.4,0,0.8,0,1.2
				c0,0.4,0,0.8,0,1.2l-0.5,13.5H417l0.9-19h3.3l5.3,14.1l5.3-14.1h3.3l0.9,19h-2.6L433,185C432.9,184.6,432.9,184.2,432.9,183.8"/>
			<defs>
				<filter id="Adobe_OpacityMaskFilter_15_" filterUnits="userSpaceOnUse" x="448" y="179.5" width="15" height="20">
					<feColorMatrix  type="matrix" values="1 0 0 0 0  0 1 0 0 0  0 0 1 0 0  0 0 0 1 0"/>
				</filter>
			</defs>
			<mask maskUnits="userSpaceOnUse" x="448" y="179.5" width="15" height="20" id="mask-4_15_">
				<g class="st32">
					<polygon id="path-3_15_" class="st0" points="0,199.5 745,199.5 745,1.5 0,1.5 					"/>
				</g>
			</mask>
			<path id="Fill-51" class="st33" d="M451.9,194.9c0.8,1.4,1.9,2.1,3.5,2.1c1.6,0,2.8-0.7,3.5-2.1c0.8-1.4,1.1-3.2,1.1-5.5
				c0-2.2-0.4-4.1-1.1-5.4c-0.8-1.4-1.9-2.1-3.5-2.1c-1.6,0-2.8,0.7-3.5,2.1c-0.8,1.4-1.1,3.2-1.1,5.4
				C450.8,191.7,451.2,193.5,451.9,194.9 M452,180.3c1-0.6,2.2-0.8,3.5-0.8c1.3,0,2.5,0.3,3.5,0.8c1,0.6,1.8,1.3,2.3,2.3
				c1.1,1.9,1.6,4.2,1.6,6.9c0,2.7-0.6,4.9-1.7,6.9c-0.6,1-1.4,1.7-2.4,2.3c-1,0.6-2.2,0.8-3.5,0.8c-1.3,0-2.5-0.3-3.5-0.8
				c-1-0.6-1.8-1.3-2.3-2.3c-1.1-1.9-1.6-4.2-1.6-6.9c0-2.7,0.6-5,1.7-6.9C450.3,181.7,451,180.9,452,180.3"/>
			<defs>
				<filter id="Adobe_OpacityMaskFilter_16_" filterUnits="userSpaceOnUse" x="474" y="179.5" width="13" height="19">
					<feColorMatrix  type="matrix" values="1 0 0 0 0  0 1 0 0 0  0 0 1 0 0  0 0 0 1 0"/>
				</filter>
			</defs>
			<mask maskUnits="userSpaceOnUse" x="474" y="179.5" width="13" height="19" id="mask-4_16_">
				<g class="st34">
					<polygon id="path-3_16_" class="st0" points="0,199.5 745,199.5 745,1.5 0,1.5 					"/>
				</g>
			</mask>
			<path id="Fill-52" class="st35" d="M479.7,196.2c2.9,0,4.4-1.1,4.4-3.4c0-1.1-0.4-2-1.2-2.6c-0.7-0.6-1.8-0.9-3.5-0.9h-2.3v6.9
				H479.7z M476.9,181.5v5.7h3c0.9-0.1,1.6-0.3,2.1-0.9c0.5-0.5,0.7-1.1,0.7-1.8c0-0.7-0.1-1.2-0.2-1.6c-0.2-0.3-0.3-0.6-0.6-0.8
				c-0.2-0.2-0.5-0.3-1-0.4c-0.7-0.1-1.5-0.2-2.6-0.2H476.9z M485.8,184.3c0,1.8-0.8,3-2.4,3.8c1.3,0.5,2.2,1.1,2.8,1.8
				c0.5,0.8,0.8,1.8,0.8,3c0,1.7-0.6,3.1-1.7,4.1c-1.1,1-2.8,1.5-5.1,1.5H474v-19h3.8c1.2,0,2.1,0,2.6,0
				C484,179.6,485.8,181.2,485.8,184.3L485.8,184.3z"/>
			<defs>
				<filter id="Adobe_OpacityMaskFilter_17_" filterUnits="userSpaceOnUse" x="498" y="179.5" width="3" height="19">
					<feColorMatrix  type="matrix" values="1 0 0 0 0  0 1 0 0 0  0 0 1 0 0  0 0 0 1 0"/>
				</filter>
			</defs>
			<mask maskUnits="userSpaceOnUse" x="498" y="179.5" width="3" height="19" id="mask-4_17_">
				<g class="st36">
					<polygon id="path-3_17_" class="st0" points="0,199.5 745,199.5 745,1.5 0,1.5 					"/>
				</g>
			</mask>
			<polygon id="Fill-53" class="st37" points="498,198.5 501,198.5 501,179.5 498,179.5 			"/>
			<defs>
				<filter id="Adobe_OpacityMaskFilter_18_" filterUnits="userSpaceOnUse" x="514" y="179.5" width="10" height="19">
					<feColorMatrix  type="matrix" values="1 0 0 0 0  0 1 0 0 0  0 0 1 0 0  0 0 0 1 0"/>
				</filter>
			</defs>
			<mask maskUnits="userSpaceOnUse" x="514" y="179.5" width="10" height="19" id="mask-4_18_">
				<g class="st38">
					<polygon id="path-3_18_" class="st0" points="0,199.5 745,199.5 745,1.5 0,1.5 					"/>
				</g>
			</mask>
			<polygon id="Fill-54" class="st39" points="516.8,196.2 524,196.2 524,198.5 514,198.5 514,179.5 516.8,179.5 			"/>
			<defs>
				<filter id="Adobe_OpacityMaskFilter_19_" filterUnits="userSpaceOnUse" x="534" y="179.5" width="11" height="19">
					<feColorMatrix  type="matrix" values="1 0 0 0 0  0 1 0 0 0  0 0 1 0 0  0 0 0 1 0"/>
				</filter>
			</defs>
			<mask maskUnits="userSpaceOnUse" x="534" y="179.5" width="11" height="19" id="mask-4_19_">
				<g class="st40">
					<polygon id="path-3_19_" class="st0" points="0,199.5 745,199.5 745,1.5 0,1.5 					"/>
				</g>
			</mask>
			<polygon id="Fill-55" class="st41" points="536.8,196.2 545,196.2 545,198.5 534,198.5 534,179.5 544.7,179.5 544.7,181.8 
				536.8,181.8 536.8,187.5 544.3,187.5 544.3,189.8 536.8,189.8 			"/>
			<defs>
				<filter id="Adobe_OpacityMaskFilter_20_" filterUnits="userSpaceOnUse" x="570" y="179.5" width="21" height="19">
					<feColorMatrix  type="matrix" values="1 0 0 0 0  0 1 0 0 0  0 0 1 0 0  0 0 0 1 0"/>
				</filter>
			</defs>
			<mask maskUnits="userSpaceOnUse" x="570" y="179.5" width="21" height="19" id="mask-4_20_">
				<g class="st42">
					<polygon id="path-3_20_" class="st0" points="0,199.5 745,199.5 745,1.5 0,1.5 					"/>
				</g>
			</mask>
			<polygon id="Fill-56" class="st43" points="579,180.9 582,180.9 586.4,195.4 588.5,179.5 591,179.5 588.4,198.5 584.9,198.5 
				580.5,183.2 576.1,198.5 572.6,198.5 570,179.5 572.5,179.5 574.6,195.4 			"/>
			<defs>
				<filter id="Adobe_OpacityMaskFilter_21_" filterUnits="userSpaceOnUse" x="603" y="179.5" width="11" height="19">
					<feColorMatrix  type="matrix" values="1 0 0 0 0  0 1 0 0 0  0 0 1 0 0  0 0 0 1 0"/>
				</filter>
			</defs>
			<mask maskUnits="userSpaceOnUse" x="603" y="179.5" width="11" height="19" id="mask-4_21_">
				<g class="st44">
					<polygon id="path-3_21_" class="st0" points="0,199.5 745,199.5 745,1.5 0,1.5 					"/>
				</g>
			</mask>
			<polygon id="Fill-57" class="st45" points="605.8,196.2 614,196.2 614,198.5 603,198.5 603,179.5 613.7,179.5 613.7,181.8 
				605.8,181.8 605.8,187.5 613.3,187.5 613.3,189.8 605.8,189.8 			"/>
			<defs>
				<filter id="Adobe_OpacityMaskFilter_22_" filterUnits="userSpaceOnUse" x="625" y="179.5" width="13" height="19">
					<feColorMatrix  type="matrix" values="1 0 0 0 0  0 1 0 0 0  0 0 1 0 0  0 0 0 1 0"/>
				</filter>
			</defs>
			<mask maskUnits="userSpaceOnUse" x="625" y="179.5" width="13" height="19" id="mask-4_22_">
				<g class="st46">
					<polygon id="path-3_22_" class="st0" points="0,199.5 745,199.5 745,1.5 0,1.5 					"/>
				</g>
			</mask>
			<path id="Fill-58" class="st47" d="M630.7,196.2c2.9,0,4.4-1.1,4.4-3.4c0-1.1-0.4-2-1.2-2.6c-0.7-0.6-1.8-0.9-3.5-0.9H628v6.9
				H630.7z M628,181.5v5.7h3c0.9-0.1,1.6-0.3,2.1-0.9c0.5-0.5,0.7-1.1,0.7-1.8c0-0.7-0.1-1.2-0.2-1.6c-0.2-0.3-0.3-0.6-0.6-0.8
				c-0.2-0.2-0.5-0.3-1-0.4c-0.7-0.1-1.5-0.2-2.6-0.2H628z M636.8,184.3c0,1.8-0.8,3-2.4,3.8c1.3,0.5,2.2,1.1,2.8,1.8
				c0.5,0.8,0.8,1.8,0.8,3c0,1.7-0.6,3.1-1.7,4.1c-1.1,1-2.8,1.5-5.1,1.5H625v-19h3.8c1.2,0,2.1,0,2.6,0
				C635,179.6,636.8,181.2,636.8,184.3L636.8,184.3z"/>
			<defs>
				<filter id="Adobe_OpacityMaskFilter_23_" filterUnits="userSpaceOnUse" x="648" y="179.5" width="12" height="20">
					<feColorMatrix  type="matrix" values="1 0 0 0 0  0 1 0 0 0  0 0 1 0 0  0 0 0 1 0"/>
				</filter>
			</defs>
			<mask maskUnits="userSpaceOnUse" x="648" y="179.5" width="12" height="20" id="mask-4_23_">
				<g class="st48">
					<polygon id="path-3_23_" class="st0" points="0,199.5 745,199.5 745,1.5 0,1.5 					"/>
				</g>
			</mask>
			<path id="Fill-59" class="st49" d="M660,194.1c0,1.6-0.6,2.9-1.7,3.9c-1.1,1-2.6,1.5-4.5,1.5c-1,0-2-0.1-3.2-0.3
				c-1.1-0.2-2-0.5-2.7-0.8l0.8-2.4c1.9,0.7,3.5,1.1,4.7,1.1c1.3,0,2.2-0.3,2.9-0.8c0.6-0.5,1-1.2,1-2.1c0-0.8-0.4-1.6-1-2.2
				c-0.7-0.6-1.6-1.2-2.7-1.7c-1.1-0.5-1.9-0.9-2.3-1.2c-0.4-0.2-0.8-0.6-1.3-1c-1-0.8-1.5-2-1.5-3.6c0-1.6,0.6-2.8,1.7-3.7
				c1.1-0.9,2.5-1.3,4.1-1.3c1.6,0,3.2,0.3,4.9,0.9l-0.8,2.3c-1.5-0.5-2.8-0.8-3.9-0.8c-1.1,0-2,0.2-2.5,0.7c-0.5,0.5-0.8,1-0.8,1.8
				s0.3,1.3,0.9,1.9c0.6,0.5,1.4,1,2.4,1.6c1,0.5,1.8,0.9,2.2,1.3c0.5,0.3,1,0.7,1.6,1.2C659.4,191.2,660,192.5,660,194.1"/>
			<defs>
				<filter id="Adobe_OpacityMaskFilter_24_" filterUnits="userSpaceOnUse" x="671" y="179.5" width="3" height="19">
					<feColorMatrix  type="matrix" values="1 0 0 0 0  0 1 0 0 0  0 0 1 0 0  0 0 0 1 0"/>
				</filter>
			</defs>
			<mask maskUnits="userSpaceOnUse" x="671" y="179.5" width="3" height="19" id="mask-4_24_">
				<g class="st50">
					<polygon id="path-3_24_" class="st0" points="0,199.5 745,199.5 745,1.5 0,1.5 					"/>
				</g>
			</mask>
			<polygon id="Fill-60" class="st51" points="671,198.5 674,198.5 674,179.5 671,179.5 			"/>
			<defs>
				<filter id="Adobe_OpacityMaskFilter_25_" filterUnits="userSpaceOnUse" x="685" y="179.5" width="13" height="19">
					<feColorMatrix  type="matrix" values="1 0 0 0 0  0 1 0 0 0  0 0 1 0 0  0 0 0 1 0"/>
				</filter>
			</defs>
			<mask maskUnits="userSpaceOnUse" x="685" y="179.5" width="13" height="19" id="mask-4_25_">
				<g class="st52">
					<polygon id="path-3_25_" class="st0" points="0,199.5 745,199.5 745,1.5 0,1.5 					"/>
				</g>
			</mask>
			<polygon id="Fill-61" class="st53" points="690.1,181.9 685,181.9 685,179.5 698,179.5 698,181.9 692.9,181.9 692.9,198.5 
				690.1,198.5 			"/>
			<defs>
				<filter id="Adobe_OpacityMaskFilter_26_" filterUnits="userSpaceOnUse" x="708" y="179.5" width="11" height="19">
					<feColorMatrix  type="matrix" values="1 0 0 0 0  0 1 0 0 0  0 0 1 0 0  0 0 0 1 0"/>
				</filter>
			</defs>
			<mask maskUnits="userSpaceOnUse" x="708" y="179.5" width="11" height="19" id="mask-4_26_">
				<g class="st54">
					<polygon id="path-3_26_" class="st0" points="0,199.5 745,199.5 745,1.5 0,1.5 					"/>
				</g>
			</mask>
			<polygon id="Fill-62" class="st55" points="710.8,196.2 719,196.2 719,198.5 708,198.5 708,179.5 718.7,179.5 718.7,181.8 
				710.8,181.8 710.8,187.5 718.3,187.5 718.3,189.8 710.8,189.8 			"/>
			<defs>
				<filter id="Adobe_OpacityMaskFilter_27_" filterUnits="userSpaceOnUse" x="592" y="112.5" width="53" height="53">
					<feColorMatrix  type="matrix" values="1 0 0 0 0  0 1 0 0 0  0 0 1 0 0  0 0 0 1 0"/>
				</filter>
			</defs>
			<mask maskUnits="userSpaceOnUse" x="592" y="112.5" width="53" height="53" id="mask-4_27_">
				<g class="st56">
					<polygon id="path-3_27_" class="st0" points="0,199.5 745,199.5 745,1.5 0,1.5 					"/>
				</g>
			</mask>
			<path id="Fill-63" class="st57" d="M618.5,159.7c-11.5,0-20.7-9.3-20.7-20.7c0-11.5,9.3-20.7,20.7-20.7s20.7,9.3,20.7,20.7
				C639.2,150.5,630,159.7,618.5,159.7 M618.5,112.5c-14.6,0-26.5,11.9-26.5,26.5c0,14.6,11.9,26.5,26.5,26.5
				c14.6,0,26.5-11.9,26.5-26.5C645,124.4,633.1,112.5,618.5,112.5"/>
			<defs>
				<filter id="Adobe_OpacityMaskFilter_28_" filterUnits="userSpaceOnUse" x="599" y="119.5" width="39" height="39">
					<feColorMatrix  type="matrix" values="1 0 0 0 0  0 1 0 0 0  0 0 1 0 0  0 0 0 1 0"/>
				</filter>
			</defs>
			<mask maskUnits="userSpaceOnUse" x="599" y="119.5" width="39" height="39" id="mask-4_28_">
				<g class="st58">
					<polygon id="path-3_28_" class="st0" points="0,199.5 745,199.5 745,1.5 0,1.5 					"/>
				</g>
			</mask>
			<path id="Fill-64" class="st59" d="M629.1,154.5c2.2-3-4-11.2-4.9-12.4c0.2-0.3,0.3-0.6,0.4-0.9c6-1.7,11.9,1.9,12.2,2
				C635.7,147.9,632.9,151.9,629.1,154.5 M614.7,157.4c3.6-0.7,5.2-10.8,5.4-12.1c0.3-0.1,0.7-0.2,1-0.3c5.5,3.2,7,10.2,7,10.2
				l0.7-0.4c-2.9,1.9-6.4,3-10.2,3C617.2,157.8,615.9,157.7,614.7,157.4 M602.7,149.2c3.3,1.7,11.7-4.3,12.3-4.7
				c0.2,0.2,0.5,0.3,0.8,0.4c1.5,5.9-2.1,11.5-2.5,12.1C608.9,155.8,605.1,153,602.7,149.2 M600.2,134.8c1.3,3.6,11.8,5.5,11.8,5.5
				l0-0.2c0.1,0.3,0.1,0.7,0.2,1c-3.1,5-9.3,6.5-10.4,6.7c-1.4-2.6-2.2-5.6-2.2-8.8C599.7,137.6,599.9,136.2,600.2,134.8 M608.7,123
				c-1.6,3.5,4.3,12.3,4.3,12.3l0.4-0.3c-0.2,0.3-0.5,0.7-0.6,1l0-0.1c-5.6,1.3-10.9-2-12-2.8C602,128.9,604.9,125.3,608.7,123
				 M623.3,120.8c-3.7,1-6.1,11.6-6.1,11.6l0.3,0.1c-0.4,0-0.7,0.1-1.1,0.2l0,0c-4.8-3.2-6.1-9.2-6.3-10.6c2.5-1.2,5.3-1.9,8.3-1.9
				C620.2,120.2,621.8,120.4,623.3,120.8 M633.9,128.2c-3.4-1.9-12.3,5-12.3,5l0.1,0.1c0,0-0.1,0-0.1-0.1c-1-5.8,2.6-10.9,3.4-11.9
				C628.6,122.7,631.7,125.1,633.9,128.2 M623.5,138.8c-0.5,0.2-1.2,0-1.4-0.6c-0.2-0.6,0-1.2,0.6-1.4c0.6-0.2,1.2,0,1.4,0.6
				C624.3,138,624.1,138.6,623.5,138.8 M619.9,143.6c-0.4-0.5-0.3-1.2,0.2-1.5c0.5-0.4,1.1-0.3,1.5,0.2c0.4,0.5,0.3,1.1-0.2,1.5
				C621,144.2,620.3,144.1,619.9,143.6 M614.6,143.1c-0.5-0.3-0.6-1-0.3-1.5c0.3-0.5,1-0.6,1.5-0.3c0.5,0.3,0.6,1,0.3,1.5
				C615.8,143.3,615.1,143.5,614.6,143.1 M614.6,135.7c0.6,0.2,0.9,0.8,0.7,1.3c-0.2,0.6-0.8,0.9-1.3,0.7c-0.6-0.2-0.9-0.8-0.7-1.4
				C613.4,135.8,614,135.5,614.6,135.7 M618.5,136.9c1.2,0,2.1,0.9,2.1,2.1c0,1.2-0.9,2.1-2.1,2.1c-1.2,0-2.1-0.9-2.1-2.1
				C616.4,137.8,617.3,136.9,618.5,136.9 M619.3,133.1c0.6,0,1.1,0.5,1.1,1.1c0,0.6-0.5,1.1-1.1,1.1c-0.6,0-1.1-0.5-1.1-1.1
				C618.2,133.6,618.7,133.1,619.3,133.1 M624.7,136.9c-0.1-0.2-0.1-0.3-0.2-0.5c3-5.1,9.3-6.7,10.2-6.9c1.6,2.8,2.6,6,2.6,9.5
				c0,1-0.1,1.9-0.2,2.9C636.4,138.2,625.7,137,624.7,136.9 M618.5,119.5c-10.8,0-19.5,8.7-19.5,19.5c0,10.8,8.7,19.5,19.5,19.5
				c10.8,0,19.5-8.7,19.5-19.5C638,128.2,629.3,119.5,618.5,119.5"/>
		</g>
	</g>
</g>
</svg>
